<?xml version="1.0"?>
<svg width="200" height="200" xmlns="http://www.w3.org/2000/svg" xmlns:svg="http://www.w3.org/2000/svg" class="w-full h-full icon-shadow">
 <defs>
  <linearGradient id="bg-gradient" x1="0%" x2="100%" y1="0%" y2="100%">
   <stop offset="0%" stop-color="#3B82F6"/>
   <stop offset="100%" stop-color="#8B5CF6"/>
  </linearGradient>
 </defs>
 <g class="layer">
  <title>Layer 1</title>
  <g id="svg_19" transform="translate(-218 6)">
   <circle cx="318.5" cy="94.5" fill="url(#bg-gradient)" id="svg_1" r="98.5"/>
   <g id="svg_11" transform="translate(-154 3) translate(370 -7) translate(0 -1) translate(0 -1) translate(0 -1) translate(83.727 93.1421) matrix(0.668118 -0.00946296 0.00632266 0.999955 0.699762 6.37829)">
    <polygon fill="#bfbfbf" id="svg_12" points="0,0 25,0 25,-5 40,5 25,15 25,10 0,10"/>
   </g>
   <g id="svg_13" transform="translate(-154 3) translate(370 -7) translate(1 0) translate(1 0) translate(1 0) translate(9 -4) matrix(1.76044 0 0 1.76044 102.791 75.0412)">
    <rect fill="white" height="30" id="svg_14" rx="2" width="40" x="0" y="0"/>
    <text fill="#10B981" font-size="8" font-weight="bold" id="svg_15" text-anchor="middle" x="20" y="15">TB</text>
    <line id="svg_16" stroke="#10B981" x1="5" x2="35" y1="20" y2="20"/>
    <line id="svg_17" stroke="#10B981" x1="5" x2="25" y1="25" y2="25"/>
   </g>
   <rect fill="white" height="20" id="svg_3" rx="3" transform="matrix(1.52778 0 0 1.52778 22.5278 43.0833) matrix(1 0 0 1 -166.909 -14.4)" width="40" x="309.6" y="16.36"/>
   <text fill="#3B82F6" font-size="10" font-weight="bold" id="svg_4" text-anchor="middle" transform="matrix(1.52778 0 0 1.52778 22.5278 43.0833) matrix(1 0 0 1 -166.909 -14.4)" x="329.6" y="30.36">WBS</text>
   <line id="svg_5" stroke="white" stroke-width="2" x1="271.08" x2="271.08" y1="76.64" y2="91.92"/>
   <line id="svg_6" stroke="white" stroke-width="2" x1="248.17" x2="294" y1="91.92" y2="91.92"/>
   <rect fill="white" height="15" id="svg_7" rx="2" transform="matrix(1.52778 0 0 1.52778 22.5278 43.0833) matrix(1 0 0 1 -166.909 -14.4)" width="30" x="314.18" y="50.05"/>
   <text fill="#3B82F6" font-size="7" font-weight="bold" id="svg_8" text-anchor="middle" transform="matrix(1.52778 0 0 1.52778 22.5278 43.0833) matrix(1 0 0 1 -166.909 -14.4)" x="329.84" y="60.4">task 1</text>
   <rect fill="white" height="15" id="svg_9" rx="2" transform="matrix(1.52778 0 0 1.52778 -232.472 21.0833)" width="30" x="314.25" y="69.69"/>
   <text fill="#3B82F6" font-size="7" font-weight="bold" id="svg_10" text-anchor="middle" transform="matrix(1.52778 0 0 1.52778 -232.472 21.0833)" x="329.25" y="80.04">task 2</text>
  </g>
 </g>
</svg>